<svg xmlns="http://www.w3.org/2000/svg" xmlns:xlink="http://www.w3.org/1999/xlink" width="138" height="32" viewBox="0 0 138 32">
    <defs>
        <path id="a" d="M.083.172h6.08v2.823H.082z"/>
        <path id="c" d="M0 .036h1.89v2.43H0z"/>
        <path id="e" d="M0 31.828h137.806V.235H0z"/>
    </defs>
    <g fill="none" fill-rule="evenodd">
        <path fill="#177DBC" d="M20.497 8.13h-5.384c-2.879 0-5.221 2.472-5.221 5.338 0 2.867 2.401 5.269 5.28 5.269.015 0 3.15-.083 3.12 1.659-.019 1.081-3.483 3.34-3.483 3.34v2.02s5.048-2.913 5.533-5.201c.436-2.066-1.603-2.735-1.941-2.9 1.186-.955 1.94-2.582 1.94-4.215 0-1.335-.516-2.311-1.35-3.644h1.506V8.13zm-5.384 8.707a3.407 3.407 0 0 1-3.41-3.396 3.407 3.407 0 0 1 3.41-3.395c1.88 0 3.41 1.523 3.41 3.395a3.407 3.407 0 0 1-3.41 3.396zM6.363 5.773c.312-.287.638-.558.975-.817l-1.085-1.48c-.405.308-.795.635-1.169.98l1.28 1.317zM7.878 4.563c.347-.24.705-.465 1.075-.673l-.87-1.616c-.443.25-.874.52-1.288.808l1.083 1.48zM4.73 7.556c.357-.464.741-.905 1.152-1.32L4.603 4.918c-.488.49-.941 1.011-1.362 1.56l1.49 1.078zM1.936 14.427c.083-.717.22-1.419.409-2.099L.582 11.8a15.6 15.6 0 0 0-.48 2.46l1.834.167zM3.561 9.336c.237-.428.497-.842.775-1.241L2.848 7.017c-.333.475-.644.967-.923 1.48l1.636.84zM2.538 11.69c.2-.606.438-1.195.716-1.761l-1.636-.84c-.328.666-.61 1.359-.844 2.074l1.764.528zM9.542 3.574a13.947 13.947 0 0 1 3.367-1.191L12.564.581c-1.37.29-2.676.76-3.892 1.378l.87 1.615zM26.84 24.708a14.105 14.105 0 0 1-2.606 2.52l1.062 1.496a15.942 15.942 0 0 0 3.01-2.911l-1.467-1.105zM13.223.459l.345 1.8c.493-.081.993-.138 1.502-.166L15.01.259a16 16 0 0 0-1.787.2M29.887 16.032c0 1.415-.214 2.782-.61 4.07l1.75.577c.455-1.47.7-3.03.7-4.647v-.062l-1.84.047v.015M30.777 10.645l-1.718.662c.462 1.273.742 2.631.81 4.044l1.841-.047a15.692 15.692 0 0 0-.933-4.659M26.432 6.869a13.985 13.985 0 0 1 2.385 3.817l1.717-.66a15.831 15.831 0 0 0-2.743-4.393L26.432 6.87zM21.653 3.319c1.635.74 3.1 1.784 4.327 3.058l1.359-1.235a15.93 15.93 0 0 0-4.966-3.51l-.72 1.687zM20.643 31.094l-.591-1.735a13.983 13.983 0 0 1-3.23.6l.08 1.831a15.832 15.832 0 0 0 3.74-.696M29.066 20.735a13.88 13.88 0 0 1-1.823 3.441l1.468 1.106a15.757 15.757 0 0 0 2.102-3.97l-1.747-.577zM23.688 27.614a13.976 13.976 0 0 1-3.003 1.53l.591 1.736a15.806 15.806 0 0 0 3.475-1.77l-1.063-1.496z"/>
        <g transform="translate(15.596 .063)">
            <mask id="b" fill="#fff">
                <use xlink:href="#a"/>
            </mask>
            <path fill="#177DBC" d="M.143 2.009c.042 0 .083-.003.125-.003a14 14 0 0 1 5.173.989l.721-1.687A15.826 15.826 0 0 0 .268.172C.206.172.144.177.083.178l.06 1.83z" mask="url(#b)"/>
        </g>
        <g transform="translate(0 14.886)">
            <mask id="d" fill="#fff">
                <use xlink:href="#c"/>
            </mask>
            <path fill="#177DBC" d="M1.84 1.145c0-.317.015-.63.036-.942L.043.036C.017.404 0 .772 0 1.146c0 .444.023.885.06 1.32l1.83-.192c-.03-.372-.05-.748-.05-1.129" mask="url(#d)"/>
        </g>
        <path fill="#177DBC" d="M16.153 29.987c-.096.003-.192.007-.29.007-.934 0-1.85-.093-2.734-.268l-.402 1.79c1.014.203 2.064.311 3.137.311.124 0 .247-.006.37-.009l-.081-1.83zM2.48 20.205a13.872 13.872 0 0 1-.52-2.382l-1.83.193c.12.954.323 1.884.609 2.778l1.742-.589zM3.822 23.177a13.926 13.926 0 0 1-1.126-2.34l-1.743.589c.35.956.79 1.868 1.31 2.727l1.559-.976zM8.834 28.106a14.113 14.113 0 0 1-2.467-1.812l-1.28 1.316a15.98 15.98 0 0 0 2.863 2.103l.884-1.607zM5.885 25.83a14.111 14.111 0 0 1-1.706-2.089l-1.557.974a15.84 15.84 0 0 0 1.984 2.433l1.28-1.318zM12.476 29.58a13.924 13.924 0 0 1-3.055-1.153l-.885 1.608c1.11.577 2.295 1.03 3.538 1.333l.402-1.788z"/>
        <path fill="#000" d="M43.156 12.04c-.304.362-.735.644-1.292.845-.557.2-1.174.3-1.85.3-.712 0-1.336-.154-1.872-.464a3.098 3.098 0 0 1-1.242-1.345c-.29-.588-.44-1.28-.448-2.074v-.556c0-.817.138-1.524.414-2.121.277-.598.676-1.054 1.197-1.371.521-.317 1.132-.475 1.832-.475.974 0 1.736.231 2.285.694.55.463.874 1.136.976 2.02h-1.648c-.075-.468-.242-.81-.499-1.028-.258-.218-.612-.326-1.064-.326-.576 0-1.014.215-1.315.646-.3.43-.453 1.072-.457 1.922v.523c0 .857.164 1.505.491 1.944.328.438.807.657 1.44.657.635 0 1.088-.135 1.36-.404v-1.411h-1.541V8.774h3.233v3.265zM47.044 8.19c-.323 0-.586.109-.787.327-.201.218-.33.53-.387.937h2.27v-.13c-.008-.361-.106-.64-.294-.838-.189-.197-.456-.296-.802-.296m.187 4.995c-.896 0-1.625-.273-2.187-.82-.563-.547-.844-1.276-.844-2.186v-.157c0-.61.118-1.157.355-1.638a2.61 2.61 0 0 1 1.008-1.113c.435-.26.93-.39 1.487-.39.835 0 1.492.261 1.972.786.48.524.72 1.268.72 2.231v.663h-3.888c.052.397.211.716.477.955.264.24.6.36 1.006.36.63 0 1.12-.226 1.474-.68l.8.894a2.444 2.444 0 0 1-.992.806c-.418.193-.88.29-1.388.29M52.169 6.993l.05.702c.437-.543 1.022-.815 1.756-.815.647 0 1.128.19 1.444.568.317.378.478.944.485 1.697v3.928h-1.63V9.184c0-.344-.076-.594-.226-.75-.15-.155-.4-.233-.75-.233-.46 0-.804.195-1.033.584v4.288h-1.631v-6.08h1.535zM58.518 10.092c0 .578.109 1.02.327 1.325.218.306.53.459.937.459.395 0 .703-.15.925-.453.222-.302.333-.785.333-1.449 0-.567-.11-1.006-.333-1.317-.222-.312-.534-.467-.937-.467-.399 0-.707.155-.925.464-.218.31-.327.789-.327 1.438zm-1.632-.116c0-.603.117-1.14.35-1.612a2.552 2.552 0 0 1 1.008-1.096c.438-.258.947-.388 1.526-.388.824 0 1.497.252 2.018.754.52.501.812 1.183.872 2.045l.011.416c0 .933-.262 1.681-.784 2.245-.523.564-1.225.845-2.105.845-.88 0-1.583-.281-2.108-.843-.525-.562-.788-1.326-.788-2.292v-.074zM65.205 6.993l.05.68c.433-.529 1.018-.793 1.756-.793.786 0 1.326.31 1.62.928.428-.618 1.04-.928 1.833-.928.663 0 1.155.192 1.479.576.324.385.485.963.485 1.734v3.883h-1.636V9.196c0-.345-.068-.597-.204-.756-.135-.16-.374-.24-.716-.24-.49 0-.828.233-1.016.698l.006 4.175H67.23V9.2c0-.352-.07-.606-.209-.764-.14-.157-.376-.236-.71-.236-.464 0-.799.191-1.005.573v4.299h-1.632v-6.08h1.53z"/>
        <mask id="f" fill="#fff">
            <use xlink:href="#e"/>
        </mask>
        <path fill="#000" d="M73.765 13.073h1.637v-6.08h-1.637v6.08zM73.67 5.42c0-.244.081-.445.245-.602.164-.157.386-.236.669-.236.278 0 .5.079.666.236a.793.793 0 0 1 .248.602c0 .247-.084.45-.251.606-.168.158-.389.236-.663.236-.275 0-.496-.078-.664-.236a.795.795 0 0 1-.25-.606zM79.285 11.876c.3 0 .545-.082.733-.247a.866.866 0 0 0 .294-.658h1.529c-.003.412-.117.79-.338 1.132-.223.343-.527.61-.912.799-.386.189-.812.283-1.278.283-.873 0-1.562-.276-2.066-.828-.504-.553-.756-1.317-.756-2.29V9.96c0-.936.25-1.684.75-2.242.501-.558 1.188-.838 2.06-.838.764 0 1.377.217 1.837.65.461.432.695 1.008.703 1.727h-1.53c-.007-.316-.105-.573-.293-.77-.188-.199-.436-.297-.745-.297-.38 0-.666.138-.86.414-.194.275-.29.723-.29 1.342v.168c0 .627.095 1.077.287 1.35.191.275.484.412.875.412M87.45 8.825h1.513c.448 0 .79-.105 1.024-.315.235-.21.353-.51.353-.9 0-.4-.119-.724-.355-.971-.238-.247-.565-.375-.983-.382h-1.551v2.568zm0 1.365v2.883h-1.692V4.89h3.205c.617 0 1.16.113 1.628.338.468.224.829.544 1.08.958.253.414.379.884.379 1.413 0 .801-.276 1.433-.827 1.896-.551.463-1.314.694-2.288.694H87.45zM96.536 8.515a4.464 4.464 0 0 0-.586-.044c-.618 0-1.022.208-1.214.623v3.979h-1.63v-6.08h1.54l.045.725c.327-.559.78-.838 1.36-.838.18 0 .35.025.508.073l-.023 1.562zM99.837 8.19c-.323 0-.586.109-.787.327-.201.218-.33.53-.387.937h2.27v-.13c-.008-.361-.106-.64-.294-.838-.189-.197-.455-.296-.802-.296m.187 4.995c-.896 0-1.625-.273-2.187-.82-.562-.547-.844-1.276-.844-2.186v-.157c0-.61.119-1.157.356-1.638a2.611 2.611 0 0 1 1.007-1.113c.435-.26.93-.39 1.487-.39.836 0 1.493.261 1.972.786.48.524.72 1.268.72 2.231v.663h-3.888c.052.397.211.716.477.955.265.24.6.36 1.007.36.628 0 1.12-.226 1.473-.68l.8.894a2.443 2.443 0 0 1-.992.806c-.418.193-.88.29-1.388.29M104.837 10.109c0 .57.1 1.007.3 1.311.199.304.489.456.868.456.505 0 .86-.212 1.067-.636V8.837c-.203-.424-.555-.636-1.055-.636-.787 0-1.18.636-1.18 1.908m-1.63-.121c0-.948.213-1.703.64-2.265.427-.562 1.011-.843 1.752-.843.594 0 1.085.222 1.473.664V4.442h1.637v8.63h-1.473l-.08-.645c-.405.505-.929.758-1.568.758-.719 0-1.295-.282-1.73-.845-.434-.564-.652-1.348-.652-2.352M110.057 13.073h1.637v-6.08h-1.637v6.08zm-.095-7.653c0-.244.081-.445.245-.602.164-.157.387-.236.669-.236.278 0 .5.079.666.236a.794.794 0 0 1 .248.602c0 .247-.084.45-.252.606-.167.158-.388.236-.662.236-.275 0-.496-.078-.664-.236a.795.795 0 0 1-.25-.606zM115.577 11.876c.3 0 .545-.082.733-.247a.865.865 0 0 0 .294-.658h1.529c-.004.412-.116.79-.338 1.132-.223.343-.527.61-.912.799-.386.189-.811.283-1.278.283-.873 0-1.561-.276-2.066-.828-.503-.553-.756-1.317-.756-2.29V9.96c0-.936.25-1.684.75-2.242.501-.558 1.188-.838 2.06-.838.764 0 1.377.217 1.837.65.461.432.695 1.008.703 1.727h-1.53c-.007-.316-.105-.573-.293-.77-.188-.199-.436-.297-.745-.297-.38 0-.666.138-.86.414-.194.275-.29.723-.29 1.342v.168c0 .627.095 1.077.287 1.35.192.275.483.412.875.412M121.017 5.498v1.495h1.044v1.191h-1.044v3.035c0 .225.043.385.13.483.086.097.251.146.496.146.18 0 .34-.013.48-.04v1.23c-.32.098-.649.147-.987.147-1.144 0-1.728-.574-1.75-1.725V8.184h-.892V6.993h.892V5.498h1.63zM123.054 13.073h1.637v-6.08h-1.637v6.08zm-.096-7.653c0-.244.082-.445.246-.602.164-.157.386-.236.668-.236.279 0 .5.079.666.236a.793.793 0 0 1 .248.602c0 .247-.083.45-.25.606-.168.158-.389.236-.664.236-.274 0-.496-.078-.663-.236a.796.796 0 0 1-.251-.606zM127.411 10.092c0 .578.11 1.02.327 1.325.218.306.53.459.937.459.395 0 .704-.15.925-.453.222-.302.333-.785.333-1.449 0-.567-.11-1.006-.333-1.317-.221-.312-.534-.467-.936-.467-.4 0-.708.155-.926.464-.218.31-.327.789-.327 1.438zm-1.631-.116c0-.603.117-1.14.35-1.612a2.551 2.551 0 0 1 1.007-1.096c.438-.258.947-.388 1.527-.388.824 0 1.496.252 2.017.754.521.501.812 1.183.872 2.045l.012.416c0 .933-.262 1.681-.785 2.245-.523.564-1.224.845-2.105.845-.88 0-1.583-.281-2.107-.843-.526-.562-.788-1.326-.788-2.292v-.074zM134.07 6.993l.05.702c.437-.543 1.022-.815 1.756-.815.647 0 1.128.19 1.444.568.317.378.478.944.486 1.697v3.928h-1.631V9.184c0-.344-.076-.594-.226-.75-.15-.155-.4-.233-.75-.233-.46 0-.804.195-1.033.584v4.288h-1.631v-6.08h1.535z" mask="url(#f)"/>
        <path fill="#177DBC" d="M40.852 22.72c-.068.62-.29 1.094-.668 1.423-.377.328-.88.493-1.507.493-.439 0-.826-.11-1.163-.327a2.139 2.139 0 0 1-.78-.928 3.285 3.285 0 0 1-.28-1.371v-.764c0-.523.091-.986.275-1.39.184-.404.448-.716.793-.935.345-.22.742-.33 1.191-.33.633 0 1.133.17 1.5.51.366.339.58.81.639 1.41h-.504c-.124-1-.669-1.5-1.635-1.5-.536 0-.962.2-1.28.6-.318.398-.477.949-.477 1.653v.72c0 .68.155 1.221.465 1.625.31.405.728.607 1.256.607.522 0 .915-.125 1.18-.374.265-.25.43-.623.491-1.121h.504zM42.008 24.555h.487V18.35h-.487zM43.933 24.555h.844v-4.372h-.844v4.372zm-.147-5.634c0-.091.05-.168.154-.231a.808.808 0 0 1 .423-.094c.177 0 .32.03.425.094.105.063.157.14.157.23 0 .092-.052.168-.157.23a.842.842 0 0 1-.425.092.823.823 0 0 1-.423-.093c-.103-.061-.154-.137-.154-.228zM46.139 20.183l.016.748c.165-.27.37-.475.617-.616.246-.141.518-.213.815-.213.471 0 .822.133 1.051.396.23.264.347.66.35 1.188v2.87h-.484v-2.874c-.002-.39-.086-.68-.25-.872-.163-.192-.425-.287-.785-.287-.3 0-.565.093-.797.28-.23.187-.402.44-.513.758v2.994h-.483v-4.372h.463zM50.36 24.555h.845v-4.372h-.844v4.372zm-.147-5.634c0-.091.051-.168.154-.231a.807.807 0 0 1 .423-.094c.178 0 .32.03.425.094.106.063.158.14.158.23 0 .092-.052.168-.158.23a.841.841 0 0 1-.425.092.822.822 0 0 1-.423-.093c-.103-.061-.154-.137-.154-.228zM53.726 24.228c.339 0 .622-.095.85-.285.23-.19.353-.436.372-.737h.467c-.014.266-.098.51-.252.729a1.58 1.58 0 0 1-.614.515 1.86 1.86 0 0 1-.823.186c-.576 0-1.032-.2-1.369-.598-.337-.399-.505-.935-.505-1.608v-.146c0-.43.076-.812.227-1.143.152-.331.369-.587.651-.768.283-.18.614-.27.992-.27.482 0 .879.142 1.191.428.313.285.48.661.502 1.127h-.467c-.022-.342-.145-.618-.371-.828-.226-.21-.51-.315-.855-.315-.438 0-.778.157-1.02.472-.242.315-.363.757-.363 1.326v.141c0 .557.121.993.363 1.305.242.312.584.469 1.024.469M57.63 24.208c.325 0 .615-.078.87-.235.256-.156.442-.365.558-.626v-.962h-.868c-.484.006-.863.094-1.136.265-.273.171-.41.406-.41.705 0 .245.091.449.274.61.183.161.42.243.712.243zm1.526.347a2.276 2.276 0 0 1-.094-.61 1.69 1.69 0 0 1-.65.511c-.265.12-.543.18-.838.18-.423 0-.764-.117-1.025-.352a1.143 1.143 0 0 1-.392-.888c0-.426.178-.763.534-1.01.355-.248.851-.372 1.487-.372h.88v-.498c0-.312-.096-.558-.29-.737-.193-.179-.475-.268-.846-.268-.338 0-.618.086-.84.258-.222.173-.333.38-.333.623l-.486-.005c0-.347.162-.648.486-.903.325-.254.724-.382 1.198-.382.49 0 .875.122 1.158.366.283.244.428.584.436 1.02v2.07c0 .422.045.738.134.949v.048h-.52zM60.892 24.555h.488V18.35h-.488zM65.336 24.135h2.918v.42h-3.421v-5.883h.503zM70.343 24.208c.325 0 .615-.078.87-.235.256-.156.442-.365.558-.626v-.962h-.868c-.484.006-.863.094-1.136.265-.273.171-.41.406-.41.705 0 .245.091.449.274.61.183.161.42.243.712.243zm1.526.347a2.278 2.278 0 0 1-.094-.61c-.17.221-.387.391-.65.511-.265.12-.544.18-.838.18-.423 0-.764-.117-1.026-.352a1.143 1.143 0 0 1-.39-.888c0-.426.177-.763.533-1.01.355-.248.851-.372 1.487-.372h.88v-.498c0-.312-.096-.558-.29-.737-.193-.179-.475-.268-.846-.268-.338 0-.618.086-.84.258-.222.173-.333.38-.333.623l-.486-.005c0-.347.162-.648.486-.903.325-.254.724-.382 1.198-.382.489 0 .875.122 1.158.366.283.244.428.584.436 1.02v2.07c0 .422.045.738.134.949v.048h-.52zM76.596 22.329c0-.577-.112-1.022-.337-1.335-.224-.315-.54-.471-.95-.471a1.34 1.34 0 0 0-.79.228c-.217.152-.38.375-.491.668v1.973c.243.55.673.824 1.29.824.4 0 .713-.158.94-.473.225-.315.338-.786.338-1.414zm.487.085c0 .681-.152 1.222-.454 1.622-.304.4-.71.6-1.222.6-.611 0-1.074-.226-1.388-.68l-.02.599h-.454v-6.206h.483v2.469c.308-.477.765-.716 1.371-.716.52 0 .93.198 1.231.593.302.394.453.943.453 1.646v.073zM78.374 22.438c0 .523.135.952.408 1.286a1.31 1.31 0 0 0 1.069.504c.438 0 .793-.168 1.065-.504.272-.334.408-.777.408-1.327v-.092c0-.335-.063-.64-.187-.918a1.497 1.497 0 0 0-.524-.644 1.344 1.344 0 0 0-.77-.228 1.3 1.3 0 0 0-1.06.507c-.273.338-.41.78-.41 1.327v.089zm-.487-.133c0-.42.081-.799.245-1.136a1.86 1.86 0 0 1 .694-.785 1.875 1.875 0 0 1 1.016-.282c.585 0 1.058.204 1.42.613.363.408.544.948.544 1.621v.102c0 .422-.081.803-.245 1.141a1.826 1.826 0 0 1-.692.782 1.903 1.903 0 0 1-1.018.275c-.582 0-1.054-.204-1.418-.612-.364-.408-.546-.949-.546-1.623v-.096zM84.837 20.595a1.799 1.799 0 0 0-.328-.028c-.303 0-.56.084-.77.253-.209.168-.358.412-.447.733v3.002h-.483v-4.372h.475l.008.695c.257-.517.67-.776 1.237-.776.136 0 .243.018.321.053l-.013.44zM86.688 24.208c.324 0 .614-.078.87-.235.256-.156.442-.365.558-.626v-.962h-.868c-.484.006-.863.094-1.136.265-.274.171-.41.406-.41.705 0 .245.091.449.273.61.183.161.42.243.713.243zm1.525.347a2.268 2.268 0 0 1-.093-.61c-.17.221-.387.391-.651.511s-.543.18-.838.18c-.422 0-.764-.117-1.025-.352a1.143 1.143 0 0 1-.391-.888c0-.426.178-.763.533-1.01.356-.248.852-.372 1.487-.372h.88v-.498c0-.312-.096-.558-.289-.737-.193-.179-.476-.268-.846-.268-.338 0-.618.086-.84.258-.222.173-.333.38-.333.623l-.487-.005c0-.347.163-.648.487-.903.325-.254.724-.382 1.198-.382.489 0 .875.122 1.158.366.282.244.428.584.436 1.02v2.07c0 .422.045.738.134.949v.048h-.52zM90.648 19.064v1.12h.91v.395h-.91v2.916c0 .244.044.424.132.543.088.118.235.178.44.178.081 0 .213-.014.394-.04l.02.392c-.127.045-.3.068-.519.068-.333 0-.575-.096-.727-.289-.151-.192-.227-.476-.227-.85v-2.918h-.807v-.396h.807v-1.119h.487zM92.701 22.438c0 .523.136.952.408 1.286a1.31 1.31 0 0 0 1.07.504c.437 0 .793-.168 1.065-.504.271-.334.407-.777.407-1.327v-.092c0-.335-.062-.64-.187-.918a1.497 1.497 0 0 0-.523-.644 1.344 1.344 0 0 0-.771-.228 1.3 1.3 0 0 0-1.06.507c-.272.338-.409.78-.409 1.327v.089zm-.487-.133c0-.42.082-.799.246-1.136a1.86 1.86 0 0 1 .693-.785 1.875 1.875 0 0 1 1.017-.282c.584 0 1.058.204 1.42.613.363.408.544.948.544 1.621v.102c0 .422-.082.803-.245 1.141a1.826 1.826 0 0 1-.692.782 1.903 1.903 0 0 1-1.018.275c-.582 0-1.055-.204-1.419-.612-.364-.408-.546-.949-.546-1.623v-.096zM99.165 20.595a1.799 1.799 0 0 0-.328-.028c-.304 0-.56.084-.77.253-.21.168-.359.412-.448.733v3.002h-.482v-4.372h.474l.008.695c.257-.517.67-.776 1.238-.776.135 0 .242.018.32.053l-.012.44zM101.397 23.86l1.282-3.677h.524l-1.875 5.115-.097.227c-.241.53-.613.796-1.116.796-.117 0-.241-.02-.374-.057l-.004-.4.252.024c.238 0 .43-.058.578-.175.147-.117.272-.319.375-.605l.216-.59-1.656-4.335h.531l1.364 3.677z" mask="url(#f)"/>
    </g>
</svg>
